# xmcd CD database file
#
# Track frame offsets:
#	150
#	15708
#	49209
#	63524
#	79657
#	98524
#	106420
#	135409
#
# Disc length: 2062 seconds
#
# Revision: 0
# Processed by: cddbd v1.5.2PL0 Copyright (c) Steve Scherf et al.
# Submitted via: CDex 1.51
#
DISCID=5d080c08
DTITLE=Aaron Marshall - Noir Ambiance
DYEAR=2007
DGENRE=New Age
TTITLE0=The salt flats
TTITLE1=peace and gravity
TTITLE2=embark
TTITLE3=prelude
TTITLE4=alternate universe
TTITLE5=nightmare trilogy
TTITLE6=outpost VII
TTITLE7=NYC
EXTD=YEAR: 2007
EXTT0=
EXTT1=
EXTT2=
EXTT3=
EXTT4=
EXTT5=
EXTT6=
EXTT7=
PLAYORDER=
